STARTFONT 2.1
FONT -FontForge-sample-Regular-R-Normal--2-20-75-75-C-20-FontSpecific-0
SIZE 2 75 75
FONTBOUNDINGBOX 1 1 0 1
COMMENT "Generated by fontforge, http://fontforge.sourceforge.net"
COMMENT "public domain, created by Mikhail Aksenov"
STARTPROPERTIES 28
FOUNDRY "FontForge"
FAMILY_NAME "sample"
WEIGHT_NAME "Regular"
SLANT "R"
SETWIDTH_NAME "Normal"
ADD_STYLE_NAME ""
PIXEL_SIZE 2
POINT_SIZE 20
RESOLUTION_X 75
RESOLUTION_Y 75
SPACING "C"
AVERAGE_WIDTH 20
CHARSET_REGISTRY "FontSpecific"
CHARSET_ENCODING "0"
FONTNAME_REGISTRY ""
CHARSET_COLLECTIONS "FontSpecific"
FONT_NAME "sample"
FACE_NAME "sample"
COPYRIGHT "public domain"
FONT_VERSION "001.000"
FONT_ASCENT 2
FONT_DESCENT 0
UNDERLINE_POSITION 0
UNDERLINE_THICKNESS 1
RAW_ASCENT 800
RAW_DESCENT 200
FIGURE_WIDTH -1
AVG_UPPERCASE_WIDTH 20
ENDPROPERTIES
CHARS 1
STARTCHAR A
ENCODING -1
SWIDTH 1000 0
DWIDTH 2 0
BBX 1 1 0 1
BITMAP
00
ENDCHAR
ENDFONT

